<?xml version="1.0" standalone="no"?>
<!DOCTYPE svg PUBLIC "-//W3C//DTD SVG 20010904//EN"
 "http://www.w3.org/TR/2001/REC-SVG-20010904/DTD/svg10.dtd">
<svg version="1.0" xmlns="http://www.w3.org/2000/svg"
 width="1024.000000pt" height="1024.000000pt" viewBox="0 0 1024.000000 1024.000000"
 preserveAspectRatio="xMidYMid meet">

<g transform="translate(0.000000,1024.000000) scale(0.100000,-0.100000)"
fill="#000000" stroke="none">
<path d="M0 5120 l0 -5120 5120 0 5120 0 0 5120 0 5120 -5120 0 -5120 0 0
-5120z m6392 2937 c396 -110 677 -328 844 -653 196 -385 171 -885 -61 -1235
-63 -94 -180 -216 -279 -291 -44 -34 -135 -87 -201 -119 -214 -104 -382 -139
-662 -139 l-171 0 52 -97 c89 -164 482 -918 504 -966 2 -4 -141 -6 -318 -5
l-323 3 -124 235 c-312 592 -546 1036 -610 1160 -195 377 -419 800 -423 800
-3 0 -121 -232 -263 -515 l-257 -515 348 0 348 0 93 -177 c52 -98 116 -220
143 -271 l49 -92 -619 2 -618 3 -161 -315 -161 -315 -331 -3 -330 -2 182 367
c259 526 1260 2518 1425 2838 77 149 144 270 148 269 23 -2 412 -727 739
-1377 l240 -478 305 3 c304 3 305 3 385 31 227 80 385 253 429 469 65 316 -80
644 -339 768 -167 80 -257 91 -736 83 l-376 -6 -103 199 c-57 109 -125 238
-151 286 -26 48 -45 88 -44 90 2 2 302 1 667 -2 l663 -6 97 -27z m-3580 -4227
c39 -96 110 -278 158 -405 48 -126 91 -238 95 -247 6 -16 -1 -18 -87 -18 l-93
0 -29 85 -29 85 -181 0 -181 0 -33 -85 -34 -85 -90 0 c-81 0 -90 2 -85 18 6
17 307 765 327 810 9 22 14 23 101 20 l91 -3 70 -175z m698 -22 l1 -203 41 45
c22 25 102 116 176 203 l135 157 98 0 c55 0 99 -3 99 -6 0 -3 -66 -83 -147
-177 -82 -95 -154 -180 -162 -190 -15 -19 -27 0 195 -299 l132 -178 -106 0
-107 0 -130 180 -130 180 -47 -53 -47 -52 -1 -127 0 -128 -85 0 -85 0 0 425 0
425 85 0 85 0 0 -202z m1240 186 c56 -17 116 -50 139 -78 12 -14 9 -23 -23
-71 -20 -30 -38 -55 -40 -55 -2 0 -30 16 -61 35 -68 40 -105 49 -181 43 -82
-7 -128 -60 -104 -122 14 -38 47 -54 181 -87 149 -36 213 -69 254 -127 27 -39
30 -52 30 -115 -1 -85 -22 -134 -83 -189 -59 -53 -135 -78 -241 -78 -50 0
-110 7 -142 16 -65 19 -141 66 -164 100 -16 24 -15 26 32 83 l49 58 48 -44
c106 -95 277 -96 324 0 18 36 5 75 -32 98 -17 10 -74 28 -126 40 -160 35 -191
48 -241 98 -54 53 -74 110 -66 183 12 95 85 185 177 213 62 19 204 19 270 -1z
m660 -159 l0 -175 199 0 199 0 1 173 0 172 86 3 85 3 0 -426 0 -425 -87 0 -88
0 0 180 1 180 -198 0 -198 0 0 -180 0 -180 -85 0 -85 0 0 425 0 425 85 0 85 0
0 -175z m1430 -57 c51 -128 116 -296 145 -373 29 -77 63 -164 74 -192 l21 -53
-94 0 -93 0 -30 83 -29 82 -180 3 -179 2 -33 -85 -34 -85 -89 0 c-49 0 -89 2
-89 4 0 4 203 517 318 803 l17 43 92 0 92 0 91 -232z m611 52 c57 -99 107
-180 110 -180 3 0 51 81 108 180 l103 180 95 0 c82 0 94 -2 89 -16 -5 -14
-192 -315 -278 -449 l-39 -59 3 -163 3 -163 -87 0 -88 0 0 165 0 164 -68 108
c-91 145 -230 376 -238 397 -5 14 5 16 89 16 l94 0 104 -180z m-3972 -1037
c63 -20 137 -83 162 -138 44 -95 15 -239 -62 -312 -64 -60 -118 -77 -271 -81
l-138 -4 0 -144 0 -144 -90 0 -90 0 0 420 0 420 219 0 c177 0 229 -3 270 -17z
m857 -48 c14 -33 86 -215 161 -405 74 -190 138 -351 140 -358 4 -10 -15 -12
-87 -10 l-92 3 -32 80 -31 80 -180 3 -180 2 -30 -82 -30 -83 -94 -3 c-86 -3
-93 -1 -87 15 4 10 80 199 169 421 l162 403 93 -3 94 -3 24 -60z m1134 -10 l0
-75 -125 0 -125 0 0 -345 0 -345 -85 0 -85 0 0 345 0 345 -125 0 -125 0 0 75
0 75 335 0 335 0 0 -75z m880 5 l0 -70 -200 0 -200 0 0 -100 0 -100 185 0 185
0 0 -70 0 -70 -185 0 -185 0 0 -110 0 -110 205 0 206 0 -3 -70 -2 -70 -288 0
-288 0 0 420 0 420 285 0 285 0 0 -70z m510 -280 l0 -350 185 0 185 0 0 -70 0
-70 -270 0 -270 0 0 420 0 420 85 0 85 0 0 -350z"/>
<path d="M2582 3646 c-34 -95 -62 -175 -62 -179 0 -4 59 -7 131 -7 121 0 131
1 124 18 -24 59 -115 313 -115 321 0 5 -3 12 -8 15 -4 2 -35 -73 -70 -168z"/>
<path d="M6640 3796 c0 -11 -82 -239 -115 -318 -7 -17 3 -18 124 -18 72 0 131
3 131 6 0 5 -98 284 -115 327 -8 20 -25 23 -25 3z"/>
<path d="M3164 2654 c3 -9 6 -69 6 -135 l0 -119 105 0 c85 0 113 4 144 20 90
45 95 178 8 230 -27 17 -51 20 -151 20 -104 0 -117 -2 -112 -16z"/>
<path d="M4175 2529 c-21 -57 -50 -139 -66 -181 l-28 -78 129 0 c72 0 130 4
130 8 0 5 -26 80 -58 168 -32 87 -61 166 -64 173 -2 8 -22 -32 -43 -90z"/>
</g>
</svg>
